0
SECTION
2
HEADER
9
$INSUNITS
70
4
9
$ACADVER
1
AC1014
9
$HANDSEED
5
FFFF
0
ENDSEC
0
SECTION
2
TABLES
0
TABLE
2
VPORT
5
8
100
AcDbSymbolTable
0
ENDTAB
0
TABLE
2
LTYPE
5
5
100
AcDbSymbolTable
0
LTYPE
5
14
100
AcDbSymbolTableRecord
100
AcDbLinetypeTableRecord
2
BYBLOCK
70
0
0
LTYPE
5
15
100
AcDbSymbolTableRecord
100
AcDbLinetypeTableRecord
2
BYLAYER
70
0
0
ENDTAB
0
TABLE
2
LAYER
5
2
100
AcDbSymbolTable
70
2
0
LAYER
5
50
100
AcDbSymbolTableRecord
100
AcDbLayerTableRecord
2
0
70
0
6
CONTINUOUS
0
ENDTAB
0
TABLE
2
STYLE
5
3
100
AcDbSymbolTable
70
1
0
STYLE
5
11
100
AcDbSymbolTableRecord
100
AcDbTextStyleTableRecord
2
STANDARD
70
0
0
ENDTAB
0
TABLE
2
VIEW
5
6
100
AcDbSymbolTable
70
0
0
ENDTAB
0
TABLE
2
UCS
5
7
100
AcDbSymbolTable
70
0
0
ENDTAB
0
TABLE
2
APPID
5
9
100
AcDbSymbolTable
70
2
0
APPID
5
12
100
AcDbSymbolTableRecord
100
AcDbRegAppTableRecord
2
ACAD
70
0
0
ENDTAB
0
TABLE
2
DIMSTYLE
5
A
100
AcDbSymbolTable
70
1
0
ENDTAB
0
TABLE
2
BLOCK_RECORD
5
1
100
AcDbSymbolTable
70
1
0
BLOCK_RECORD
5
1F
100
AcDbSymbolTableRecord
100
AcDbBlockTableRecord
2
*MODEL_SPACE
0
BLOCK_RECORD
5
1B
100
AcDbSymbolTableRecord
100
AcDbBlockTableRecord
2
*PAPER_SPACE
0
ENDTAB
0
ENDSEC
0
SECTION
2
BLOCKS
0
BLOCK
5
20
100
AcDbEntity
100
AcDbBlockBegin
2
*MODEL_SPACE
0
ENDBLK
5
21
100
AcDbEntity
100
AcDbBlockEnd
0
BLOCK
5
1C
100
AcDbEntity
100
AcDbBlockBegin
2
*PAPER_SPACE
0
ENDBLK
5
1D
100
AcDbEntity
100
AcDbBlockEnd
0
ENDSEC
0
SECTION
2
ENTITIES
0
CIRCLE
5
100
100
AcDbEntity
8
0
100
AcDbCircle
10
-87.719157024914836
20
158.21051436993696
30
0
40
1.5875000000000126
210
0
220
-0
230
1
0
CIRCLE
5
101
100
AcDbEntity
8
0
100
AcDbCircle
10
-59.779157024914824
20
158.21051436993696
30
0
40
1.5875000000000039
210
0
220
-0
230
1
0
CIRCLE
5
102
100
AcDbEntity
8
0
100
AcDbCircle
10
-102.95915702491482
20
209.01051436993697
30
0
40
1.587499999999995
210
0
220
-0
230
1
0
CIRCLE
5
103
100
AcDbEntity
8
0
100
AcDbCircle
10
-54.699157024914804
20
210.28051436993701
30
0
40
1.5875000000000039
210
0
220
-0
230
1
0
LWPOLYLINE
5
104
100
AcDbEntity
8
0
100
AcDbPolyline
90
36
70
1
43
0.0
10
-125.24999999999999
20
-24.999945329999989
10
-120.24999999999999
20
-24.999945329999989
10
-120.24999999999999
20
25.000054670000011
10
-125.24999999999999
20
25.000054670000011
10
-125.24999999999999
20
75.000054670000011
10
-120.24999999999999
20
75.000054670000011
10
-120.24999999999999
20
125.00005467000001
10
-125.24999999999999
20
125.00005467000001
10
-125.24999999999999
20
175.00005467
10
-120.24999999999999
20
175.00005467
10
-120.25
20
224.84858350053219
10
109.75
20
224.84858350053219
10
109.75
20
174.84858350053219
10
114.75
20
174.84858350053219
10
114.75
20
124.84858350053219
10
109.75
20
124.84858350053219
10
109.75
20
74.848583500532186
10
114.75
20
74.848583500532186
10
114.75
20
24.848583500532193
10
109.75
20
24.848583500532193
10
109.75
20
-25.151416499467807
10
114.75
20
-25.151416499467807
10
114.75
20
-75.151416499467814
10
109.75
20
-75.151416499467814
10
109.75
20
-125.15141649946781
10
114.75
20
-125.15141649946781
10
114.75
20
-175.15141649946781
10
109.75
20
-175.15141649946781
10
109.75
20
-225.15141649946781
10
-120.25
20
-225.15141649946781
10
-120.24999999999999
20
-174.99994533
10
-125.25
20
-174.99994533000003
10
-125.24999999999999
20
-124.99994532999999
10
-120.24999999999999
20
-124.99994532999999
10
-120.24999999999999
20
-74.999945329999989
10
-125.24999999999999
20
-74.999945329999989
0
ENDSEC
0
SECTION
2
OBJECTS
0
DICTIONARY
5
C
100
AcDbDictionary
3
ACAD_GROUP
350
D
3
ACAD_MLINESTYLE
350
17
0
DICTIONARY
5
D
100
AcDbDictionary
0
DICTIONARY
5
1A
330
C
100
AcDbDictionary
0
DICTIONARY
5
17
100
AcDbDictionary
0
ENDSEC
0
EOF
