0
SECTION
2
HEADER
9
$INSUNITS
70
4
9
$ACADVER
1
AC1014
9
$HANDSEED
5
FFFF
0
ENDSEC
0
SECTION
2
TABLES
0
TABLE
2
VPORT
5
8
100
AcDbSymbolTable
0
ENDTAB
0
TABLE
2
LTYPE
5
5
100
AcDbSymbolTable
0
LTYPE
5
14
100
AcDbSymbolTableRecord
100
AcDbLinetypeTableRecord
2
BYBLOCK
70
0
0
LTYPE
5
15
100
AcDbSymbolTableRecord
100
AcDbLinetypeTableRecord
2
BYLAYER
70
0
0
ENDTAB
0
TABLE
2
LAYER
5
2
100
AcDbSymbolTable
70
2
0
LAYER
5
50
100
AcDbSymbolTableRecord
100
AcDbLayerTableRecord
2
0
70
0
6
CONTINUOUS
0
ENDTAB
0
TABLE
2
STYLE
5
3
100
AcDbSymbolTable
70
1
0
STYLE
5
11
100
AcDbSymbolTableRecord
100
AcDbTextStyleTableRecord
2
STANDARD
70
0
0
ENDTAB
0
TABLE
2
VIEW
5
6
100
AcDbSymbolTable
70
0
0
ENDTAB
0
TABLE
2
UCS
5
7
100
AcDbSymbolTable
70
0
0
ENDTAB
0
TABLE
2
APPID
5
9
100
AcDbSymbolTable
70
2
0
APPID
5
12
100
AcDbSymbolTableRecord
100
AcDbRegAppTableRecord
2
ACAD
70
0
0
ENDTAB
0
TABLE
2
DIMSTYLE
5
A
100
AcDbSymbolTable
70
1
0
ENDTAB
0
TABLE
2
BLOCK_RECORD
5
1
100
AcDbSymbolTable
70
1
0
BLOCK_RECORD
5
1F
100
AcDbSymbolTableRecord
100
AcDbBlockTableRecord
2
*MODEL_SPACE
0
BLOCK_RECORD
5
1B
100
AcDbSymbolTableRecord
100
AcDbBlockTableRecord
2
*PAPER_SPACE
0
ENDTAB
0
ENDSEC
0
SECTION
2
BLOCKS
0
BLOCK
5
20
100
AcDbEntity
100
AcDbBlockBegin
2
*MODEL_SPACE
0
ENDBLK
5
21
100
AcDbEntity
100
AcDbBlockEnd
0
BLOCK
5
1C
100
AcDbEntity
100
AcDbBlockBegin
2
*PAPER_SPACE
0
ENDBLK
5
1D
100
AcDbEntity
100
AcDbBlockEnd
0
ENDSEC
0
SECTION
2
ENTITIES
0
LWPOLYLINE
5
100
100
AcDbEntity
8
0
100
AcDbPolyline
90
38
70
1
43
0.0
10
-125.00005466815853
20
-12.306970339344684
10
-125.00005466815853
20
-17.306970339344684
10
-75.000054668158526
20
-17.306970339344684
10
-75.000054668158526
20
-12.306970339344684
10
-59.999999999999964
20
-12.30697033934462
10
-47.709098930609173
20
-0.016069269953800092
10
-39.771054381149604
20
-0.01606926995379946
42
0.99999999999999989
10
35.358512413996493
20
-0.016069269953802312
10
47.709098930609137
20
-0.016069269953800092
10
59.999999999999964
20
-12.30697033934462
10
74.999945331841474
20
-12.306970339344616
10
74.999945331841474
20
-17.306970339344616
10
124.99994533184147
20
-17.306970339344616
10
124.99994533184147
20
-12.306970339344616
10
174.99994533184147
20
-12.306970339344616
10
174.99994533184147
20
-17.306970339344616
10
224.99994533184147
20
-17.306970339344616
10
224.9999453318415
20
-90.306999999999988
10
174.99994533
20
-90.306999999999988
10
174.99994533
20
-85.306999999999988
10
124.99994532999999
20
-85.306999999999988
10
124.99994532999999
20
-90.306999999999988
10
74.999945329999989
20
-90.306999999999988
10
74.999945329999989
20
-85.306999999999988
10
24.999945329999989
20
-85.306999999999988
10
24.999945329999989
20
-90.306999999999988
10
-25.000054670000011
20
-90.306999999999988
10
-25.000054670000011
20
-85.306999999999988
10
-75.000054670000011
20
-85.306999999999988
10
-75.000054670000011
20
-90.306999999999988
10
-125.00005467000001
20
-90.306999999999988
10
-125.00005467000001
20
-85.306999999999988
10
-175.00005467
20
-85.306999999999988
10
-175.00005467
20
-90.306999999999988
10
-225.00005467
20
-90.306999999999988
10
-225.00005466815853
20
-17.306970339344684
10
-175.00005466815853
20
-17.306970339344684
10
-175.00005466815853
20
-12.306970339344684
0
ENDSEC
0
SECTION
2
OBJECTS
0
DICTIONARY
5
C
100
AcDbDictionary
3
ACAD_GROUP
350
D
3
ACAD_MLINESTYLE
350
17
0
DICTIONARY
5
D
100
AcDbDictionary
0
DICTIONARY
5
1A
330
C
100
AcDbDictionary
0
DICTIONARY
5
17
100
AcDbDictionary
0
ENDSEC
0
EOF
