0
SECTION
2
HEADER
9
$INSUNITS
70
4
9
$ACADVER
1
AC1014
9
$HANDSEED
5
FFFF
0
ENDSEC
0
SECTION
2
TABLES
0
TABLE
2
VPORT
5
8
100
AcDbSymbolTable
0
ENDTAB
0
TABLE
2
LTYPE
5
5
100
AcDbSymbolTable
0
LTYPE
5
14
100
AcDbSymbolTableRecord
100
AcDbLinetypeTableRecord
2
BYBLOCK
70
0
0
LTYPE
5
15
100
AcDbSymbolTableRecord
100
AcDbLinetypeTableRecord
2
BYLAYER
70
0
0
ENDTAB
0
TABLE
2
LAYER
5
2
100
AcDbSymbolTable
70
2
0
LAYER
5
50
100
AcDbSymbolTableRecord
100
AcDbLayerTableRecord
2
0
70
0
6
CONTINUOUS
0
ENDTAB
0
TABLE
2
STYLE
5
3
100
AcDbSymbolTable
70
1
0
STYLE
5
11
100
AcDbSymbolTableRecord
100
AcDbTextStyleTableRecord
2
STANDARD
70
0
0
ENDTAB
0
TABLE
2
VIEW
5
6
100
AcDbSymbolTable
70
0
0
ENDTAB
0
TABLE
2
UCS
5
7
100
AcDbSymbolTable
70
0
0
ENDTAB
0
TABLE
2
APPID
5
9
100
AcDbSymbolTable
70
2
0
APPID
5
12
100
AcDbSymbolTableRecord
100
AcDbRegAppTableRecord
2
ACAD
70
0
0
ENDTAB
0
TABLE
2
DIMSTYLE
5
A
100
AcDbSymbolTable
70
1
0
ENDTAB
0
TABLE
2
BLOCK_RECORD
5
1
100
AcDbSymbolTable
70
1
0
BLOCK_RECORD
5
1F
100
AcDbSymbolTableRecord
100
AcDbBlockTableRecord
2
*MODEL_SPACE
0
BLOCK_RECORD
5
1B
100
AcDbSymbolTableRecord
100
AcDbBlockTableRecord
2
*PAPER_SPACE
0
ENDTAB
0
ENDSEC
0
SECTION
2
BLOCKS
0
BLOCK
5
20
100
AcDbEntity
100
AcDbBlockBegin
2
*MODEL_SPACE
0
ENDBLK
5
21
100
AcDbEntity
100
AcDbBlockEnd
0
BLOCK
5
1C
100
AcDbEntity
100
AcDbBlockBegin
2
*PAPER_SPACE
0
ENDBLK
5
1D
100
AcDbEntity
100
AcDbBlockEnd
0
ENDSEC
0
SECTION
2
ENTITIES
0
LWPOLYLINE
5
100
100
AcDbEntity
8
0
100
AcDbPolyline
90
4
70
1
43
0.0
10
13.475000000000158
20
-151.07457013927151
10
13.475000000000158
20
-157.07457013927151
10
18.475000000000158
20
-157.07457013927151
10
18.475000000000158
20
-151.07457013927151
0
LWPOLYLINE
5
101
100
AcDbEntity
8
0
100
AcDbPolyline
90
4
70
1
43
0.0
10
13.475000000000158
20
-163.07457013927149
10
13.475000000000158
20
-169.07457013927149
10
18.475000000000158
20
-169.07457013927149
10
18.475000000000158
20
-163.07457013927149
0
LWPOLYLINE
5
102
100
AcDbEntity
8
0
100
AcDbPolyline
90
4
70
1
43
0.0
10
13.475000000000183
20
-139.07457013927151
10
13.475000000000158
20
-145.07457013927151
10
18.475000000000158
20
-145.07457013927151
10
18.475000000000158
20
-139.07457013927151
0
LWPOLYLINE
5
103
100
AcDbEntity
8
0
100
AcDbPolyline
90
4
70
1
43
0.0
10
13.475000000000158
20
-175.07457013927151
10
13.475000000000129
20
-181.07457013927149
10
18.475000000000129
20
-181.07457013927149
10
18.475000000000158
20
-175.07457013927151
0
LWPOLYLINE
5
104
100
AcDbEntity
8
0
100
AcDbPolyline
90
4
70
1
43
0.0
10
13.475000000000154
20
-127.07457013927154
10
13.475000000000183
20
-133.07457013927151
10
18.475000000000158
20
-133.07457013927151
10
18.475000000000154
20
-127.07457013927154
0
LWPOLYLINE
5
105
100
AcDbEntity
8
0
100
AcDbPolyline
90
16
70
1
43
0.0
10
55.249999999999986
20
-99.000027334079235
10
55.249999999999986
20
-74.999999999999972
10
125.25
20
-74.999999999999972
10
125.24999999999972
20
-125.00005466815853
10
120.24999999999972
20
-125.00005466815853
10
120.24999999999972
20
-175.00005466815853
10
125.24999999999972
20
-175.00005466815853
10
125.24999999999999
20
-224.99999999999997
10
-114.75000000000001
20
-224.99999999999997
10
-114.75000000000028
20
-175.00005466815853
10
-109.75000000000028
20
-175.00005466815853
10
-109.75000000000028
20
-125.00005466815853
10
-114.75000000000028
20
-125.00005466815853
10
-114.75000000000001
20
-74.999999999999972
10
-44.750000000000014
20
-74.999999999999972
10
-44.750000000000014
20
-99.000027334079235
0
CIRCLE
5
106
100
AcDbEntity
8
0
100
AcDbCircle
10
1.1299973950955039e-13
20
-130
30
0
40
1.6000000000000003
210
0
220
-0
230
1
0
CIRCLE
5
107
100
AcDbEntity
8
0
100
AcDbCircle
10
1.1299973950955039e-13
20
-210
30
0
40
1.6000000000000014
210
0
220
-0
230
1
0
ENDSEC
0
SECTION
2
OBJECTS
0
DICTIONARY
5
C
100
AcDbDictionary
3
ACAD_GROUP
350
D
3
ACAD_MLINESTYLE
350
17
0
DICTIONARY
5
D
100
AcDbDictionary
0
DICTIONARY
5
1A
330
C
100
AcDbDictionary
0
DICTIONARY
5
17
100
AcDbDictionary
0
ENDSEC
0
EOF
