0
SECTION
2
HEADER
9
$INSUNITS
70
4
9
$ACADVER
1
AC1014
9
$HANDSEED
5
FFFF
0
ENDSEC
0
SECTION
2
TABLES
0
TABLE
2
VPORT
5
8
100
AcDbSymbolTable
0
ENDTAB
0
TABLE
2
LTYPE
5
5
100
AcDbSymbolTable
0
LTYPE
5
14
100
AcDbSymbolTableRecord
100
AcDbLinetypeTableRecord
2
BYBLOCK
70
0
0
LTYPE
5
15
100
AcDbSymbolTableRecord
100
AcDbLinetypeTableRecord
2
BYLAYER
70
0
0
ENDTAB
0
TABLE
2
LAYER
5
2
100
AcDbSymbolTable
70
2
0
LAYER
5
50
100
AcDbSymbolTableRecord
100
AcDbLayerTableRecord
2
0
70
0
6
CONTINUOUS
0
ENDTAB
0
TABLE
2
STYLE
5
3
100
AcDbSymbolTable
70
1
0
STYLE
5
11
100
AcDbSymbolTableRecord
100
AcDbTextStyleTableRecord
2
STANDARD
70
0
0
ENDTAB
0
TABLE
2
VIEW
5
6
100
AcDbSymbolTable
70
0
0
ENDTAB
0
TABLE
2
UCS
5
7
100
AcDbSymbolTable
70
0
0
ENDTAB
0
TABLE
2
APPID
5
9
100
AcDbSymbolTable
70
2
0
APPID
5
12
100
AcDbSymbolTableRecord
100
AcDbRegAppTableRecord
2
ACAD
70
0
0
ENDTAB
0
TABLE
2
DIMSTYLE
5
A
100
AcDbSymbolTable
70
1
0
ENDTAB
0
TABLE
2
BLOCK_RECORD
5
1
100
AcDbSymbolTable
70
1
0
BLOCK_RECORD
5
1F
100
AcDbSymbolTableRecord
100
AcDbBlockTableRecord
2
*MODEL_SPACE
0
BLOCK_RECORD
5
1B
100
AcDbSymbolTableRecord
100
AcDbBlockTableRecord
2
*PAPER_SPACE
0
ENDTAB
0
ENDSEC
0
SECTION
2
BLOCKS
0
BLOCK
5
20
100
AcDbEntity
100
AcDbBlockBegin
2
*MODEL_SPACE
0
ENDBLK
5
21
100
AcDbEntity
100
AcDbBlockEnd
0
BLOCK
5
1C
100
AcDbEntity
100
AcDbBlockBegin
2
*PAPER_SPACE
0
ENDBLK
5
1D
100
AcDbEntity
100
AcDbBlockEnd
0
ENDSEC
0
SECTION
2
ENTITIES
0
LWPOLYLINE
5
100
100
AcDbEntity
8
0
100
AcDbPolyline
90
44
70
1
43
0.0
10
-176.07457013927154
20
1.9872163717191071
10
-183.07457013927205
20
1.9872163717190816
10
-183.07457013927205
20
7.9872163717190823
10
-176.07457013927154
20
7.9872163717191107
10
-176.07457013927154
20
13.987216371719109
10
-183.07457013927205
20
13.987216371719084
10
-183.07457013927205
20
19.987216371719086
10
-176.07457013927154
20
19.987216371719111
10
-176.07457013927154
20
25.987216371719114
10
-183.07457013927205
20
25.987216371719086
10
-183.07457013927205
20
31.987216371719086
10
-125.07457013927203
20
31.987216371719136
10
-125.07457013927203
20
25.987216371719132
10
-132.07457013927151
20
25.987216371719111
10
-132.07457013927151
20
19.987216371719107
10
-125.07457013927203
20
19.987216371719136
10
-125.07457013927203
20
13.987216371719134
10
-132.07457013927151
20
13.987216371719109
10
-132.07457013927151
20
7.9872163717191045
10
-125.07457013927203
20
7.9872163717191311
10
-125.07457013927203
20
1.9872163717191305
10
-132.07457013927151
20
1.9872163717191027
10
-132.07457013927151
20
-4.0127836282808937
10
-127.07457013927203
20
-4.0127836282808911
10
-127.07457013927153
20
-17.306819869352676
10
-133.07457013927151
20
-17.306819869352754
10
-133.07457013927151
20
-12.306819869352754
10
-139.07457013927149
20
-12.306819869352754
10
-139.07457013927149
20
-17.306819869352754
10
-145.07457013927149
20
-17.306819869352754
10
-145.07457013927149
20
-12.306819869352754
10
-151.07457013927149
20
-12.306819869352754
10
-151.07457013927149
20
-17.306819869352754
10
-157.07457013927149
20
-17.306819869352754
10
-157.07457013927151
20
-12.306819869352754
10
-163.07457013927149
20
-12.306819869352754
10
-163.07457013927149
20
-17.306819869352754
10
-169.07457013927149
20
-17.306819869352754
10
-169.07457013927149
20
-12.306819869352754
10
-175.07457013927151
20
-12.306819869352754
10
-175.07457013927151
20
-17.306819869352754
10
-181.07457013927149
20
-17.306819869352825
10
-181.07457013927203
20
-4.0127836282808937
10
-176.07457013927154
20
-4.0127836282808937
0
CIRCLE
5
101
100
AcDbEntity
8
0
100
AcDbCircle
10
-169.57653623333883
20
-6.5147497223482507
30
0
40
1.5000000000000036
210
-1.6092035573578686e-75
220
1.019953927687052e-45
230
1
0
CIRCLE
5
102
100
AcDbEntity
8
0
100
AcDbCircle
10
-154.07457013927169
20
8.9872163717192652
30
0
40
14.000000000000021
210
-1.6092035573578686e-75
220
1.019953927687052e-45
230
1
0
CIRCLE
5
103
100
AcDbEntity
8
0
100
AcDbCircle
10
-138.57260404520417
20
-6.5147497223478581
30
2.2204460492503131e-15
40
1.5000000000000036
210
-1.6092035573578686e-75
220
1.019953927687052e-45
230
1
0
LWPOLYLINE
5
104
100
AcDbEntity
8
0
100
AcDbPolyline
90
4
70
1
43
0.0
10
-171.07653623335977
20
27.000000418195299
10
-171.07653623333925
20
22.07250209985936
42
0.99999999999999989
10
-168.07653623333923
20
22.072502099865613
10
-168.07653623333925
20
27.000000476837155
42
1.0000000197123835
0
LWPOLYLINE
5
105
100
AcDbEntity
8
0
100
AcDbPolyline
90
4
70
1
43
0.0
10
-137.07260404520457
20
22.099999394267794
10
-137.07260404520457
20
26.999999284744259
42
1.000000397333332
10
-140.07260404520457
20
27.000000476837155
10
-140.07260404520457
20
22.099999394267794
42
0.99999999999999989
0
ENDSEC
0
SECTION
2
OBJECTS
0
DICTIONARY
5
C
100
AcDbDictionary
3
ACAD_GROUP
350
D
3
ACAD_MLINESTYLE
350
17
0
DICTIONARY
5
D
100
AcDbDictionary
0
DICTIONARY
5
1A
330
C
100
AcDbDictionary
0
DICTIONARY
5
17
100
AcDbDictionary
0
ENDSEC
0
EOF
